<?xml version="1.0" encoding="UTF-8" standalone="no"?>
<!-- Created with Inkscape (http://www.inkscape.org/) -->

<svg
   xmlns:dc="http://purl.org/dc/elements/1.1/"
   xmlns:cc="http://creativecommons.org/ns#"
   xmlns:rdf="http://www.w3.org/1999/02/22-rdf-syntax-ns#"
   xmlns:svg="http://www.w3.org/2000/svg"
   xmlns="http://www.w3.org/2000/svg"
   xmlns:sodipodi="http://sodipodi.sourceforge.net/DTD/sodipodi-0.dtd"
   xmlns:inkscape="http://www.inkscape.org/namespaces/inkscape"
   width="18.141853mm"
   height="18.141851mm"
   viewBox="0 0 64.282157 64.282151"
   id="svg2"
   version="1.1"
   inkscape:version="0.92.3 (2405546, 2018-03-11)"
   sodipodi:docname="edged_curve_color.svg">
  <sodipodi:namedview
     id="base"
     pagecolor="#ffffff"
     bordercolor="#666666"
     borderopacity="1.0"
     inkscape:pageopacity="0.0"
     inkscape:pageshadow="2"
     inkscape:zoom="2.0000001"
     inkscape:cx="-111.80798"
     inkscape:cy="-101.6513"
     inkscape:document-units="px"
     inkscape:current-layer="layer1"
     showgrid="false"
     inkscape:window-width="1853"
     inkscape:window-height="1025"
     inkscape:window-x="67"
     inkscape:window-y="27"
     inkscape:window-maximized="1"
     fit-margin-top="0"
     fit-margin-left="0"
     fit-margin-right="0"
     fit-margin-bottom="0" />
  <defs
     id="defs4" />
  <metadata
     id="metadata7">
    <rdf:RDF>
      <cc:Work
         rdf:about="">
        <dc:format>image/svg+xml</dc:format>
        <dc:type
           rdf:resource="http://purl.org/dc/dcmitype/StillImage" />
        <dc:title></dc:title>
      </cc:Work>
    </rdf:RDF>
  </metadata>
  <g
     id="layer1"
     inkscape:groupmode="layer"
     inkscape:label="Calque 1"
     transform="translate(-542.07318,-287.29257)">
    <path
       inkscape:connector-curvature="0"
       style="fill:none;stroke:#000000;stroke-width:0.90318286;stroke-opacity:1"
       d="m 578.06676,306.53443 c -2.06229,0.13134 -3.93387,0.90924 -4.99586,3.68077 -0.12086,0.31616 -0.41122,0.50809 -0.74999,0.50809 -0.57107,0 -2.33677,-1.40868 -2.84001,-1.74875 3.5e-4,4.19241 1.95024,7.87726 6.58011,7.87726 3.89946,0 6.57961,-2.22833 6.57961,-6.11884 0,-0.15841 -0.0334,-0.30954 -0.0498,-0.46481 l -4.524,-3.73372 z m 14.95163,-15.74844 c -0.77927,0 -1.50971,0.34161 -2.06693,0.83747 -10.5073,9.29612 -11.60064,9.51452 -11.60064,12.25093 0,0.69747 0.16703,1.36234 0.44874,1.97021 l 3.28055,2.70739 c 0.37062,0.0916 0.75253,0.15419 1.15092,0.15419 3.19264,0 5.04315,-2.31487 10.85428,-13.05631 0.37936,-0.73056 0.7145,-1.51967 0.7145,-2.34134 0,-1.4718 -1.33647,-2.5226 -2.78142,-2.5226 z"
       id="path4472" />
    <path
       sodipodi:nodetypes="cccc"
       inkscape:connector-curvature="0"
       id="path4485"
       d="m 577.8195,344.01153 16.08124,-28.42299 -39.37295,14.94019 16.08126,-28.42299"
       style="fill:none;fill-rule:evenodd;stroke:#000000;stroke-width:4.24248075;stroke-linecap:round;stroke-linejoin:round;stroke-miterlimit:4;stroke-dasharray:none;stroke-opacity:1" />
  </g>
</svg>
