<?xml version="1.0" encoding="UTF-8" standalone="no"?>
<!-- Created with Inkscape (http://www.inkscape.org/) -->

<svg
   xmlns:dc="http://purl.org/dc/elements/1.1/"
   xmlns:cc="http://creativecommons.org/ns#"
   xmlns:rdf="http://www.w3.org/1999/02/22-rdf-syntax-ns#"
   xmlns:svg="http://www.w3.org/2000/svg"
   xmlns="http://www.w3.org/2000/svg"
   xmlns:sodipodi="http://sodipodi.sourceforge.net/DTD/sodipodi-0.dtd"
   xmlns:inkscape="http://www.inkscape.org/namespaces/inkscape"
   width="18.141853mm"
   height="18.141851mm"
   viewBox="0 0 64.282157 64.282151"
   id="svg2"
   version="1.1"
   inkscape:version="0.92.3 (2405546, 2018-03-11)"
   sodipodi:docname="surface_color.svg">
  <sodipodi:namedview
     id="base"
     pagecolor="#ffffff"
     bordercolor="#666666"
     borderopacity="1.0"
     inkscape:pageopacity="0.0"
     inkscape:pageshadow="2"
     inkscape:zoom="2.8284272"
     inkscape:cx="-70.105896"
     inkscape:cy="18.244887"
     inkscape:document-units="px"
     inkscape:current-layer="layer1"
     showgrid="false"
     inkscape:window-width="1853"
     inkscape:window-height="1025"
     inkscape:window-x="67"
     inkscape:window-y="27"
     inkscape:window-maximized="1"
     fit-margin-top="0"
     fit-margin-left="0"
     fit-margin-right="0"
     fit-margin-bottom="0" />
  <defs
     id="defs4" />
  <metadata
     id="metadata7">
    <rdf:RDF>
      <cc:Work
         rdf:about="">
        <dc:format>image/svg+xml</dc:format>
        <dc:type
           rdf:resource="http://purl.org/dc/dcmitype/StillImage" />
        <dc:title></dc:title>
      </cc:Work>
    </rdf:RDF>
  </metadata>
  <g
     id="layer1"
     inkscape:groupmode="layer"
     inkscape:label="Calque 1"
     transform="translate(-644.7204,-506.28244)">
    <g
       id="g3204">
      <path
         style="fill:none;fill-rule:evenodd;stroke:#000000;stroke-width:1.14199996;stroke-linecap:butt;stroke-linejoin:round;stroke-miterlimit:4;stroke-dasharray:none;stroke-opacity:1"
         d="M 688.35582,521.06357 H 668.1954 l 16.84981,34.40439 14.14623,-33.14832 0.39929,-0.93565 -0.092,-0.13069"
         id="path4785"
         inkscape:connector-curvature="0"
         sodipodi:nodetypes="cccccc" />
      <path
         sodipodi:nodetypes="ccc"
         inkscape:connector-curvature="0"
         id="path4787"
         d="m 668.1954,521.06357 -15.46442,34.40439 h 32.31423"
         style="color:#000000;clip-rule:nonzero;display:inline;overflow:visible;visibility:visible;opacity:1;isolation:auto;mix-blend-mode:normal;color-interpolation:sRGB;color-interpolation-filters:linearRGB;solid-color:#000000;solid-opacity:1;fill:none;fill-opacity:1;fill-rule:evenodd;stroke:#000000;stroke-width:1.14199996;stroke-linecap:round;stroke-linejoin:round;stroke-miterlimit:4;stroke-dasharray:none;stroke-dashoffset:0;stroke-opacity:1;color-rendering:auto;image-rendering:auto;shape-rendering:auto;text-rendering:auto;enable-background:accumulate" />
      <path
         style="color:#000000;clip-rule:nonzero;display:inline;overflow:visible;visibility:visible;opacity:1;isolation:auto;mix-blend-mode:normal;color-interpolation:sRGB;color-interpolation-filters:linearRGB;solid-color:#000000;solid-opacity:1;fill:#000000;fill-opacity:1;fill-rule:evenodd;stroke:none;stroke-width:0.26784703;stroke-linecap:round;stroke-linejoin:round;stroke-miterlimit:4;stroke-dasharray:none;stroke-dashoffset:0;stroke-opacity:1;color-rendering:auto;image-rendering:auto;shape-rendering:auto;text-rendering:auto;enable-background:accumulate"
         d="m 656.09946,553.23887 c 0.0205,-0.0535 2.76921,-6.17511 6.10814,-13.60347 l 6.0708,-13.50613 6.65178,13.57942 c 3.65848,7.46867 6.65178,13.59024 6.65178,13.60347 0,0.0132 -5.74197,0.0241 -12.75993,0.0241 -11.47064,0 -12.75616,-0.01 -12.72257,-0.0974 z"
         id="path4789"
         inkscape:connector-curvature="0" />
      <path
         inkscape:connector-curvature="0"
         style="fill:none;stroke:#000000;stroke-width:0.90318286;stroke-opacity:1"
         d="m 687.1207,524.00681 c -2.06229,0.13134 -3.93387,0.90924 -4.99586,3.68077 -0.12086,0.31616 -0.41122,0.50809 -0.74999,0.50809 -0.57107,0 -2.33677,-1.40868 -2.84001,-1.74875 3.5e-4,4.19241 1.95024,7.87726 6.58011,7.87726 3.89946,0 6.57961,-2.22833 6.57961,-6.11884 0,-0.15841 -0.0334,-0.30954 -0.0498,-0.46481 l -4.524,-3.73372 z m 14.95163,-15.74844 c -0.77927,0 -1.50971,0.34161 -2.06693,0.83747 -10.5073,9.29612 -11.60064,9.51452 -11.60064,12.25093 0,0.69747 0.16703,1.36234 0.44874,1.97021 l 3.28055,2.70739 c 0.37062,0.0916 0.75253,0.15419 1.15092,0.15419 3.19264,0 5.04315,-2.31487 10.85428,-13.05631 0.37936,-0.73056 0.7145,-1.51967 0.7145,-2.34134 0,-1.4718 -1.33647,-2.5226 -2.78142,-2.5226 z"
         id="path3496-9" />
      <path
         sodipodi:nodetypes="ccscccccccccccsscsccc"
         style="color:#000000;clip-rule:nonzero;display:inline;overflow:visible;visibility:visible;opacity:1;isolation:auto;mix-blend-mode:normal;color-interpolation:sRGB;color-interpolation-filters:linearRGB;solid-color:#000000;solid-opacity:1;fill:#000000;fill-opacity:1;fill-rule:evenodd;stroke:none;stroke-width:4.24248075;stroke-linecap:round;stroke-linejoin:round;stroke-miterlimit:4;stroke-dasharray:none;stroke-dashoffset:0;stroke-opacity:1;color-rendering:auto;image-rendering:auto;shape-rendering:auto;text-rendering:auto;enable-background:accumulate"
         d="m 686.08301,523.23786 c -6.80382,-0.009 -14.38087,-0.008 -14.39258,0.004 -0.0117,0.0117 2.9537,6.09559 6.58985,13.51953 4.62712,9.44724 6.62907,13.47186 6.66797,13.41016 0.0306,-0.0485 2.63052,-6.12555 5.77929,-13.50391 l 4.69109,-10.98852 c 0.12828,-0.43159 -0.95647,0.48375 -1.90984,0.50024 -0.39839,0 -0.78172,-0.0627 -1.15234,-0.15429 l -3.2793,-2.70704 c -0.0115,-0.0248 -0.0201,-0.0511 -0.0312,-0.0762 l -2.96289,-0.004 z m 1.26172,0.76953 4.52344,3.73242 c 0.0164,0.15527 0.0488,0.30643 0.0488,0.46484 0,3.89051 -2.67867,6.11914 -6.57813,6.11914 -4.62987,0 -6.57973,-3.68454 -6.58008,-7.87695 0.50324,0.34007 2.26878,1.74805 2.83985,1.74805 0.33877,0 0.62914,-0.19166 0.75,-0.50781 1.06199,-2.77153 2.9338,-3.54835 4.99609,-3.67969 z"
         id="path4808"
         inkscape:connector-curvature="0" />
    </g>
  </g>
</svg>
